<svg id="svg14531" width="34" height="34" version="1.1" viewBox="0 0 34 34" xmlns="http://www.w3.org/2000/svg">
 <defs id="defs14535">
  <clipPath id="clip0">
   <path id="path8" d="m0 0h20v20h-20z" fill="#fff"/>
  </clipPath>
 </defs>
 <g id="g13" transform="scale(1.7)">
  <g id="g6" clip-path="url(#clip0)">
   <path id="path2" d="M 9.9994,1 C 14.9626,1 19,5.00181 19,10 19,14.9655 14.9626,19 9.9994,19 5.0374,19 1,14.9655 1,10 1,5.00181 5.0374,1 9.9994,1 Z" fill="#45abe9" opacity=".949"/>
   <path id="path4" d="m10 19c4.9706 0 9-4.0294 9-9 0-4.9706-4.0294-9-9-9-4.9706 0-9 4.0294-9 9 0 4.9706 4.0294 9 9 9zm0 1c5.5228 0 10-4.4772 10-10 0-5.5228-4.4772-10-10-10-5.5228 0-10 4.4772-10 10 0 5.5228 4.4772 10 10 10z" clip-rule="evenodd" fill="#1578b3" fill-rule="evenodd" opacity=".95"/>
  </g>
 </g>
 <path id="path14525" d="m18.913 7.0748h-0.05907-11.873v5.6371h14.987l-2.4895-5.2321c-0.11814-0.24473-0.27848-0.40506-0.5654-0.40506zm-10.937 1.7131h2v2.9789h-2zm2.8608 0h2.6245v2.9789h-2.6245zm4.1181 0h3.5106l1.3418 2.9789h-3.5105z" fill="#fff" stroke-width="2.1603"/>
 <path id="path14527" d="m7.0652 14.02v6.3038h15.156c0.6751-0.01687 1.0295-0.61603 1.097-0.72574l3.6371-5.5781zm13.342 0.8692c1.2321 0 2.2447 1.0042 2.2447 2.2363s-1.0127 2.2363-2.2447 2.2363c-1.2236 0-2.2363-1.0042-2.2363-2.2363s1.0127-2.2363 2.2363-2.2363zm0 1.2743c-0.54008 0-0.96202 0.42194-0.96202 0.96203 0 0.54008 0.42194 0.96203 0.96202 0.96203 0.54008 0 0.96203-0.42194 0.96203-0.96203 0-0.54008-0.42194-0.96203-0.96203-0.96203z" fill="#fff" stroke-width="2.1603"/>
 <path id="path14529" d="m7.6306 25.176c2.4473-2.5738 4.903-1.8228 6.903 0 2.6582-2.6582 5.2912-1.8987 7.1055 0 2.1688-2.0253 4.481-2.5907 7.173 0" fill="none" stroke="#fff" stroke-linecap="round" stroke-width="1.5421"/>
</svg>
