<svg id="svg12" width="16" height="16" version="1.1" viewBox="0 0 16 16" xmlns="http://www.w3.org/2000/svg">
 <rect id="rect40320" width="16" height="16" color="#000000" fill="#84ca73" stop-color="#000000" stroke-width=".5px" style="-inkscape-stroke:none"/>
 <g id="g10" fill="#67BF4C" opacity=".8">
  <path id="path2" d="m11 2c0-0.55228 0.4477-1 1-1h1c0.5523 0 1 0.44772 1 1v3h-3v-3z"/>
  <path id="path4" d="M10 6.5C10 6.22386 10.2239 6 10.5 6H14.5C14.7761 6 15 6.22386 15 6.5V7H10V6.5Z"/>
  <path id="path6" d="m2 10c0-0.55229 0.44772-1 1-1h1c0.55228 0 1 0.44771 1 1v3h-3v-3z"/>
  <path id="path8" d="M1 14.5C1 14.2239 1.22386 14 1.5 14H5.5C5.77614 14 6 14.2239 6 14.5V15H1V14.5Z"/>
 </g>
</svg>
