<svg id="svg10" width="32" height="32" version="1.1" viewBox="0 0 32 32" xmlns="http://www.w3.org/2000/svg">
 <rect id="rect40320" width="32" height="32" color="#000000" fill="#84ca73" stop-color="#000000" stroke-width="1px" style="-inkscape-stroke:none"/>
 <g fill="#67BF4C">
  <path id="path2" d="m21 4c0-1.1046 0.8954-2 2-2h3c1.1046 0 2 0.89543 2 2v6h-7v-6z"/>
  <path id="path4" d="m19 13c0-1.1046 0.8954-2 2-2h7c1.1046 0 2 0.8954 2 2v1h-11v-1z"/>
  <path id="path6" d="m4 20c0-1.1046 0.89543-2 2-2h3c1.1046 0 2 0.8954 2 2v6h-7v-6z"/>
  <path id="path8" d="m2 29c0-1.1046 0.89543-2 2-2h7c1.1046 0 2 0.8954 2 2v1h-11v-1z"/>
 </g>
</svg>
