<svg id="svg10925" width="34" height="34" fill="none" version="1.1" viewBox="0 0 34 34" xmlns="http://www.w3.org/2000/svg">
 <defs id="defs10929">
  <clipPath id="clip0-3">
   <path id="path49931" d="m0 0h18v18h-18z" fill="#fff"/>
  </clipPath>
 </defs>
 <g id="g49936" transform="scale(1.8889)">
  <g id="g49929" clip-path="url(#clip0-3)">
   <path id="path49925" d="m13 1h-8c-2.2091 0-4 1.7909-4 4v8c0 2.2091 1.7909 4 4 4h8c2.2091 0 4-1.7909 4-4v-8c0-2.2091-1.7909-4-4-4zm-8-1c-2.7614 0-5 2.2386-5 5v8c0 2.7614 2.2386 5 5 5h8c2.7614 0 5-2.2386 5-5v-8c0-2.7614-2.2386-5-5-5z" clip-rule="evenodd" fill="#1578b3" fill-rule="evenodd" opacity=".95"/>
   <rect id="rect49927" x="1" y="1" width="16" height="16" rx="4" fill="#45abe9" opacity=".95"/>
  </g>
 </g>
 <g id="g10923" transform="translate(5 5) scale(2)" fill="#fff" fill-rule="evenodd">
  <path id="path10919" d="m3.6211 1c-0.39844 0-0.77734 0.15625-1.0586 0.4375l-0.125 0.125c-0.28125 0.28125-0.4375 0.66016-0.4375 1.0586v7.1289c0 0.13672 0.11328 0.25 0.25 0.25h0.25v0.25c0 0.41406 0.33594 0.75 0.75 0.75s0.75-0.33594 0.75-0.75v-0.25h4v0.25c0 0.41406 0.33594 0.75 0.75 0.75s0.75-0.33594 0.75-0.75v-0.25h0.25c0.13672 0 0.25-0.11328 0.25-0.25v-7.1289c0-0.39844-0.15625-0.77734-0.4375-1.0586l-0.125-0.125c-0.28125-0.28125-0.66016-0.4375-1.0586-0.4375zm0.37891 1.5c0-0.27734 0.22266-0.5 0.5-0.5h3c0.27734 0 0.5 0.22266 0.5 0.5s-0.22266 0.5-0.5 0.5h-3c-0.27734 0-0.5-0.22266-0.5-0.5zm-1 1.5h6v3h-6zm1 4.5c0 0.27734-0.22266 0.5-0.5 0.5s-0.5-0.22266-0.5-0.5 0.22266-0.5 0.5-0.5 0.5 0.22266 0.5 0.5zm4.5 0.5c0.27734 0 0.5-0.22266 0.5-0.5s-0.22266-0.5-0.5-0.5-0.5 0.22266-0.5 0.5 0.22266 0.5 0.5 0.5z"/>
  <path id="path10921" d="m3.707 1c-0.45312 0-0.88672 0.17969-1.207 0.5s-0.5 0.75391-0.5 1.207v6.293c0 0.37109 0.19922 0.69141 0.5 0.86719v0.38281c0 0.41406 0.33594 0.75 0.75 0.75s0.75-0.33594 0.75-0.75v-0.25h4v0.25c0 0.41406 0.33594 0.75 0.75 0.75s0.75-0.33594 0.75-0.75v-0.38281c0.30078-0.17578 0.5-0.49609 0.5-0.86719v-6.293c0-0.45312-0.17969-0.88672-0.5-1.207s-0.75391-0.5-1.207-0.5zm0.29297 1.5c0-0.27734 0.22266-0.5 0.5-0.5h3c0.27734 0 0.5 0.22266 0.5 0.5s-0.22266 0.5-0.5 0.5h-3c-0.27734 0-0.5-0.22266-0.5-0.5zm-1 1.5h6v3h-6zm1 4.5c0 0.27734-0.22266 0.5-0.5 0.5s-0.5-0.22266-0.5-0.5 0.22266-0.5 0.5-0.5 0.5 0.22266 0.5 0.5zm4.5 0.5c0.27734 0 0.5-0.22266 0.5-0.5s-0.22266-0.5-0.5-0.5-0.5 0.22266-0.5 0.5 0.22266 0.5 0.5 0.5z"/>
 </g>%n%n
</svg>
