<?xml version="1.0" encoding="UTF-8" standalone="no"?>
<svg
   width="34"
   height="34"
   viewBox="0 0 34 34"
   fill="none"
   version="1.1"
   id="svg10925"
   sodipodi:docname="highway_bus_stop.svg"
   inkscape:version="1.2.2 (b0a8486541, 2022-12-01)"
   xmlns:inkscape="http://www.inkscape.org/namespaces/inkscape"
   xmlns:sodipodi="http://sodipodi.sourceforge.net/DTD/sodipodi-0.dtd"
   xmlns="http://www.w3.org/2000/svg"
   xmlns:svg="http://www.w3.org/2000/svg"><defs
   id="defs10929">
  <clipPath
     id="clip0">
    <path
       d="M 0,0 H 20 V 20 H 0 Z"
       fill="#ffffff"
       id="path8" />
  </clipPath>
  <clipPath
     id="clipPath3291">
    <path
       d="M 0,0 H 20 V 20 H 0 Z"
       fill="#ffffff"
       id="path3289" />
  </clipPath>
</defs>
<sodipodi:namedview
   id="namedview10927"
   pagecolor="#ffffff"
   bordercolor="#666666"
   borderopacity="1.0"
   inkscape:showpageshadow="2"
   inkscape:pageopacity="0.0"
   inkscape:pagecheckerboard="0"
   inkscape:deskcolor="#d1d1d1"
   showgrid="false"
   inkscape:zoom="12.705882"
   inkscape:cx="18.416667"
   inkscape:cy="18.613426"
   inkscape:window-width="1920"
   inkscape:window-height="1013"
   inkscape:window-x="1920"
   inkscape:window-y="0"
   inkscape:window-maximized="1"
   inkscape:current-layer="svg10925" />
<g
   transform="scale(1.7)"
   id="g13">
  <g
     clip-path="url(#clip0)"
     id="g6">
    <path
       opacity="0.949"
       d="M 9.9994,1 C 14.9626,1 19,5.00181 19,10 19,14.9655 14.9626,19 9.9994,19 5.0374,19 1,14.9655 1,10 1,5.00181 5.0374,1 9.9994,1 Z"
       fill="#45abe9"
       id="path2" />
    <path
       opacity="0.95"
       fill-rule="evenodd"
       clip-rule="evenodd"
       d="m 10,19 c 4.9706,0 9,-4.0294 9,-9 0,-4.97056 -4.0294,-9 -9,-9 -4.97056,0 -9,4.02944 -9,9 0,4.9706 4.02944,9 9,9 z m 0,1 C 15.5228,20 20,15.5228 20,10 20,4.47715 15.5228,0 10,0 4.47715,0 0,4.47715 0,10 0,15.5228 4.47715,20 10,20 Z"
       fill="#1578b3"
       id="path4" />
  </g>
  <defs
     id="defs11">
    <clipPath
       id="clipPath12915">
      <path
         d="M 0,0 H 20 V 20 H 0 Z"
         fill="#ffffff"
         id="path12913" />
    </clipPath>
  </defs>
</g>
<g
   transform="translate(5.000000, 5.000000) scale(2.000000 2.000000) "
   id="g10923">
  <path
     fill-rule="evenodd"
     fill="rgb(100%, 100%, 100%)"
     fill-opacity="1"
     d="M 3.621094 1 C 3.222656 1 2.84375 1.15625 2.5625 1.4375 L 2.4375 1.5625 C 2.15625 1.84375 2 2.222656 2 2.621094 L 2 9.75 C 2 9.886719 2.113281 10 2.25 10 L 2.5 10 L 2.5 10.25 C 2.5 10.664062 2.835938 11 3.25 11 C 3.664062 11 4 10.664062 4 10.25 L 4 10 L 8 10 L 8 10.25 C 8 10.664062 8.335938 11 8.75 11 C 9.164062 11 9.5 10.664062 9.5 10.25 L 9.5 10 L 9.75 10 C 9.886719 10 10 9.886719 10 9.75 L 10 2.621094 C 10 2.222656 9.84375 1.84375 9.5625 1.5625 L 9.4375 1.4375 C 9.15625 1.15625 8.777344 1 8.378906 1 Z M 4 2.5 C 4 2.222656 4.222656 2 4.5 2 L 7.5 2 C 7.777344 2 8 2.222656 8 2.5 C 8 2.777344 7.777344 3 7.5 3 L 4.5 3 C 4.222656 3 4 2.777344 4 2.5 Z M 3 4 L 9 4 L 9 7 L 3 7 Z M 4 8.5 C 4 8.777344 3.777344 9 3.5 9 C 3.222656 9 3 8.777344 3 8.5 C 3 8.222656 3.222656 8 3.5 8 C 3.777344 8 4 8.222656 4 8.5 Z M 8.5 9 C 8.777344 9 9 8.777344 9 8.5 C 9 8.222656 8.777344 8 8.5 8 C 8.222656 8 8 8.222656 8 8.5 C 8 8.777344 8.222656 9 8.5 9 Z M 8.5 9 "
     id="path10919" />
  <path
     fill-rule="evenodd"
     fill="rgb(100%, 100%, 100%)"
     fill-opacity="1"
     d="M 3.707031 1 C 3.253906 1 2.820312 1.179688 2.5 1.5 C 2.179688 1.820312 2 2.253906 2 2.707031 L 2 9 C 2 9.371094 2.199219 9.691406 2.5 9.867188 L 2.5 10.25 C 2.5 10.664062 2.835938 11 3.25 11 C 3.664062 11 4 10.664062 4 10.25 L 4 10 L 8 10 L 8 10.25 C 8 10.664062 8.335938 11 8.75 11 C 9.164062 11 9.5 10.664062 9.5 10.25 L 9.5 9.867188 C 9.800781 9.691406 10 9.371094 10 9 L 10 2.707031 C 10 2.253906 9.820312 1.820312 9.5 1.5 C 9.179688 1.179688 8.746094 1 8.292969 1 Z M 4 2.5 C 4 2.222656 4.222656 2 4.5 2 L 7.5 2 C 7.777344 2 8 2.222656 8 2.5 C 8 2.777344 7.777344 3 7.5 3 L 4.5 3 C 4.222656 3 4 2.777344 4 2.5 Z M 3 4 L 9 4 L 9 7 L 3 7 Z M 4 8.5 C 4 8.777344 3.777344 9 3.5 9 C 3.222656 9 3 8.777344 3 8.5 C 3 8.222656 3.222656 8 3.5 8 C 3.777344 8 4 8.222656 4 8.5 Z M 8.5 9 C 8.777344 9 9 8.777344 9 8.5 C 9 8.222656 8.777344 8 8.5 8 C 8.222656 8 8 8.222656 8 8.5 C 8 8.777344 8.222656 9 8.5 9 Z M 8.5 9 "
     id="path10921" />
</g>
%n%n</svg>
