<svg id="svg29878" width="34" height="34" version="1.1" viewBox="0 0 34 34" xmlns="http://www.w3.org/2000/svg">
 <defs id="defs29882">
  <clipPath id="clipPath36307">
   <g id="g36311">
    <path id="path36309" d="m0 0h34v34h-34z" fill="#fff" stroke-width="1.7"/>
   </g>
  </clipPath>
  <clipPath id="clipPath36313">
   <g id="g36317">
    <path id="path36315" d="m0 0h34v34h-34z" fill="#fff" stroke-width="1.7"/>
   </g>
  </clipPath>
 </defs>
 <g>
  <path id="path2" d="m16.999 1.7c8.4374 0 15.301 6.8031 15.301 15.3 0 8.4414-6.8636 15.3-15.301 15.3-8.4354 0-15.299-6.8586-15.299-15.3 0-8.4969 6.8636-15.3 15.299-15.3z" clip-path="url(#clipPath36313)" fill="#a5a5a5" opacity=".949" stroke-width="1.7"/>
  <path id="path4" d="m17 32.3c8.45 0 15.3-6.85 15.3-15.3 0-8.45-6.85-15.3-15.3-15.3-8.45 0-15.3 6.85-15.3 15.3 0 8.45 6.85 15.3 15.3 15.3zm0 1.7c9.3888 0 17-7.6112 17-17 0-9.3888-7.6112-17-17-17-9.3888 0-17 7.6112-17 17 0 9.3888 7.6112 17 17 17z" clip-path="url(#clipPath36307)" clip-rule="evenodd" fill="#7c7c7c" fill-rule="evenodd" opacity=".95" stroke-width="1.7"/>
  <path id="path29876" d="m26.877 20.623-2.7741-0.02541 1.9521-1.9317c0.18837-0.18639 0.2911-0.41515 0.2911-0.6778 0-0.27112-0.10273-0.4914-0.2911-0.6778-0.19692-0.18639-0.42809-0.27959-0.69351-0.27959-0.26542 0-0.49659 0.09319-0.69351 0.27112l-1.9436 1.9487v-2.7451c0-0.26265-0.09418-0.49141-0.28254-0.68627-0.18836-0.1864-0.41953-0.28806-0.71064-0.28806-0.26542 0-0.48803 0.10167-0.67639 0.28806-0.18836 0.19487-0.27398 0.42362-0.27398 0.68627v2.7451l-1.9778-1.9487c-0.17124-0.17792-0.39385-0.27112-0.65927-0.27112-0.29111 0-0.52228 0.09319-0.71064 0.27959-0.18836 0.1864-0.28254 0.40668-0.28254 0.6778 0 0.26265 0.10274 0.49141 0.29967 0.6778l1.9436 1.9571h-2.7741c-0.26542 0-0.49659 0.08473-0.69351 0.27112-0.19692 0.18639-0.2911 0.40668-0.2911 0.6778 0 0.26265 0.09418 0.4914 0.2911 0.68627 0.19692 0.1864 0.4281 0.28807 0.69351 0.28807h2.7741l-1.9436 1.9233c-0.19692 0.19487-0.29967 0.42362-0.29967 0.68627 0 0.26264 0.09418 0.4914 0.28254 0.68627 0.18836 0.19486 0.41953 0.28806 0.71064 0.28806 0.26542 0 0.48803-0.10168 0.65927-0.28806l1.9778-1.9233v2.7112c0 0.27959 0.08561 0.51682 0.27398 0.69474 0.18836 0.1864 0.41097 0.27959 0.67639 0.27959 0.2911 0 0.52227-0.09319 0.71064-0.27959 0.18836-0.17792 0.28254-0.41515 0.28254-0.69474v-2.7112l1.9436 1.9233c0.19692 0.1864 0.42809 0.28806 0.69351 0.28806 0.28254 0 0.51372-0.09319 0.70208-0.28806 0.18837-0.19486 0.28254-0.42363 0.28254-0.68627 0-0.26265-0.10273-0.4914-0.2911-0.68627l-1.9521-1.9233h2.7741c0.26542 0 0.49659-0.10167 0.67639-0.28807 0.18837-0.19486 0.28254-0.42362 0.28254-0.68627 0-0.27112-0.09418-0.49141-0.28254-0.6778-0.1798-0.18639-0.41097-0.27112-0.67639-0.27112zm-10.548-5.3546 0.02568-6.3544c0-0.26265-0.09418-0.4914-0.2911-0.68627-0.19692-0.19487-0.42809-0.28806-0.69351-0.28806s-0.49659 0.093194-0.69351 0.28806c-0.19692 0.19487-0.2911 0.42362-0.2911 0.68627v4.0075l-5.7279-5.6681c-0.19692-0.19487-0.42809-0.28806-0.69351-0.28806s-0.49659 0.093198-0.67639 0.28806c-0.18836 0.19487-0.28254 0.42362-0.28254 0.68627 0 0.26265 0.085613 0.4914 0.26542 0.68627l5.7279 5.6681h-4.0498c-0.26542 0-0.49659 0.09319-0.69351 0.27959-0.19692 0.17792-0.2911 0.41515-0.2911 0.69475 0 0.26265 0.094178 0.4914 0.2911 0.66932 0.19692 0.18639 0.4281 0.27959 0.69351 0.27959h6.4214c0.26542 0 0.48803-0.09319 0.67639-0.27959 0.18836-0.17792 0.28254-0.40668 0.28254-0.66932z" fill="#fff" stroke-width="2.1804"/>
 </g>
</svg>
