<svg id="svg30" width="32" height="32" fill="none" version="1.1" viewBox="0 0 32 32" xmlns="http://www.w3.org/2000/svg">
 <rect id="rect1581" width="32" height="32" color="#000000" fill="#c4c2c1" stop-color="#000000" stroke-width="1px" style="-inkscape-stroke:none"/>
 <g stroke="#fff" stroke-linecap="round" stroke-linejoin="round" stroke-width=".6648">
  <path id="path2" d="m12.754 9.3142c-0.5765 0.14221-1.3652-0.13774-1.7838 0.39398-0.1416 0.63268 0.5256 1.3152 1.1653 1.1152 0.6604 0.0207 1.4432 0.2641 2.0083-0.1957-0.0824-0.6099-0.7253-0.93413-1.1701-1.2704-0.0701-0.0276-0.1433-0.05172-0.2196-0.04312l-1e-4 9e-5z"/>
  <path id="path4" d="m15.381 23.313c-0.5764 0.1422-1.3652-0.1378-1.7838 0.394-0.1416 0.6326 0.5256 1.3151 1.1653 1.1151 0.6604 0.0207 1.4431 0.2641 2.0082-0.1957-0.0824-0.6099-0.7252-0.9341-1.17-1.2704-0.0701-0.0276-0.1433-0.0517-0.2196-0.0431l-1e-4 1e-4z"/>
  <path id="path6" d="m23.96 19.047c-0.5307 0.1274-1.1969-0.1344-1.6214 0.3031-0.0829 0.5854 0.5483 1.074 1.0984 0.8931 0.5773 0.0173 1.2681 0.2385 1.7623-0.1243-0.1798-0.5204-0.7243-0.835-1.1724-1.0818-0.0241 8e-4 -0.0442-0.0207-0.067 0.0108l1e-4 -9e-4z"/>
  <path id="path8" d="m12.845 18.397c-0.2123-0.0242-0.2675 0.1357-0.074 0.2171 0.3979 0.1695 0.8502-0.0276 1.2656 0.1074 0.3304 0.0832 0.1533-0.0843-0.0207-0.1861-0.3404-0.2448-0.7776-0.0758-1.1725-0.1386l0.0016 2e-4z"/>
  <path id="path10" d="m26.134 26.765c-0.6826 0.1156-1.6463-0.1249-2.0489 0.6089-0.2434 0.8486 0.677 1.749 1.5235 1.5163 0.7266 0.0564 1.7166 0.2797 2.2059-0.4197 0.0567-0.8283-0.807-1.3011-1.4131-1.6745-0.0863-0.0241-0.1774-0.0386-0.2675-0.031h1e-4z"/>
  <path id="path12" d="m18.87 30.671c-0.2123-0.0241-0.2676 0.1357-0.0738 0.2172 0.3979 0.1691 0.8502-0.0276 1.2656 0.1073 0.3304 0.0832 0.1533-0.0843-0.0207-0.1861-0.3404-0.2448-0.7776-0.0752-1.1725-0.1385l0.0014 1e-4z"/>
  <path id="path14" d="m7.5675 21.526c-0.39632 0.0936-0.92689-0.1361-1.2417 0.1574 0.0874 0.4375 0.61794 0.4999 0.97903 0.4107 0.35169 3e-3 0.86706 0.1713 1.1343 0.0108-0.21786-0.2565-0.5323-0.5336-0.87158-0.5803v0.0014z"/>
  <path id="path16" d="m5.7312 27.538c-0.53069 0.1274-1.1969-0.1343-1.6214 0.3032-0.0829 0.5854 0.54829 1.0739 1.0984 0.8931 0.57724 0.0173 1.268 0.2385 1.7623-0.1243-0.17989-0.5205-0.72432-0.835-1.1725-1.0818-0.0241 8e-4 -0.04418-0.0207-0.06698 0.0108l1.2e-4 -1e-3z"/>
  <path id="path18" d="m2.6747 13.469c-0.68261 0.1156-1.6463-0.1249-2.0489 0.6089-0.24341 0.8486 0.67699 1.749 1.5235 1.5163 0.72661 0.0564 1.7165 0.2797 2.2059-0.4197 0.0567-0.8283-0.80702-1.3011-1.4131-1.6745-0.0863-0.0241-0.17747-0.0386-0.26758-0.031h1.5e-4z"/>
  <path id="path20" d="m29.311 15.632c-0.3963 0.0936-0.9269-0.1361-1.2417 0.1577 0.0874 0.4375 0.618 0.4999 0.979 0.4107 0.3517 3e-3 0.8671 0.1713 1.1343 0.0108-0.2178-0.2565-0.5323-0.5336-0.8716-0.5802v1e-3z"/>
  <path id="path22" d="m18.075 1.5906c-0.6826 0.11565-1.6463-0.12491-2.0489 0.60892-0.2434 0.84865 0.677 1.7491 1.5235 1.5163 0.7266 0.0564 1.7166 0.27969 2.2059-0.41967 0.0567-0.82833-0.807-1.3011-1.4131-1.6745-0.0863-0.0241-0.1774-0.03861-0.2676-0.03101l2e-4 -3e-5z"/>
  <path id="path24" d="m27.496 6.6364c-0.2123-0.0241-0.2676 0.13571-0.0738 0.21716 0.3979 0.16918 0.8502-0.02762 1.2656 0.1073 0.3304 0.0832 0.1534-0.08418-0.0207-0.18606-0.3404-0.24479-0.7776-0.07571-1.1725-0.13852l0.0014 1.2e-4z"/>
  <path id="path26" d="m7.3198 4.2969c-0.39631 0.09359-0.92688-0.13603-1.2417 0.15744 0.0874 0.43743 0.61796 0.49983 0.97907 0.41067 0.35168 3e-3 0.86702 0.17126 1.1342 0.0108-0.21786-0.25652-0.5323-0.53363-0.87159-0.58026v0.00135z"/>
  <path id="path28" d="m21.73 13.739c-0.2123-0.0241-0.2676 0.1358-0.0738 0.2172 0.3979 0.1692 0.8501-0.0276 1.2656 0.1073 0.3304 0.0832 0.1533-0.0842-0.0207-0.1861-0.3404-0.2448-0.7776-0.0756-1.1725-0.1384h0.0014z"/>
 </g>
</svg>
