<svg id="svg7032" width="34" height="34" fill="none" version="1.1" viewBox="0 0 34 34" xmlns="http://www.w3.org/2000/svg" xmlns:xlink="http://www.w3.org/1999/xlink">
 <defs id="defs7036">
  <clipPath id="clip0">
   <path id="path8" d="m0 0h20v20h-20z" fill="#fff"/>
  </clipPath>
 </defs>%n%n
 <g id="g13" transform="scale(1.7)">
  <g id="g6" clip-path="url(#clip0)">
   <path id="path2" d="M 9.9994,1 C 14.9626,1 19,5.00181 19,10 19,14.9655 14.9626,19 9.9994,19 5.0374,19 1,14.9655 1,10 1,5.00181 5.0374,1 9.9994,1 Z" fill="#45abe9" opacity=".949"/>
   <path id="path4" d="m10 19c4.9706 0 9-4.0294 9-9 0-4.9706-4.0294-9-9-9-4.9706 0-9 4.0294-9 9 0 4.9706 4.0294 9 9 9zm0 1c5.5228 0 10-4.4772 10-10 0-5.5228-4.4772-10-10-10-5.5228 0-10 4.4772-10 10 0 5.5228 4.4772 10 10 10z" clip-rule="evenodd" fill="#1578b3" fill-rule="evenodd" opacity=".95"/>
  </g>
 </g>
 <g id="g7030" transform="translate(5 5) scale(2)">
  <defs id="defs7020">
   <filter id="filter-remove-color" x="0" y="0" width="1" height="1">
    <feColorMatrix id="feColorMatrix7009" color-interpolation-filters="sRGB" values="0 0 0 0 1 0 0 0 0 1 0 0 0 0 1 0 0 0 1 0"/>
   </filter>
   <mask id="mask-0">
    <g id="g7014" filter="url(#filter-remove-color)">
     <rect id="rect7012" x="-1.2" y="-1.2" width="14.4" height="14.4" fill="#000" fill-opacity=".5"/>
    </g>
   </mask>
   <g id="source-9" clip100-path="url(#clip100-0)">
    <path id="path7017" d="m3.5 9h1l-0.66797 2h4.3359l-0.66797-2h1l1 3h-7z" fill="#fff"/>
   </g>
  </defs>
  <path id="path7022" d="m8 0h-4v1h4z" fill="#fff"/>
  <path id="path7024" d="m3.707 2c-0.45312 0-0.88672 0.17969-1.207 0.5s-0.5 0.75391-0.5 1.207v5.293c0 0.55078 0.44922 1 1 1h6c0.55078 0 1-0.44922 1-1v-5.293c0-0.45312-0.17969-0.88672-0.5-1.207s-0.75391-0.5-1.207-0.5h-1.793l0.5-1h-1l-0.5 1zm5.293 2h-6v3h6zm-5.5 5c0.27734 0 0.5-0.22266 0.5-0.5s-0.22266-0.5-0.5-0.5-0.5 0.22266-0.5 0.5 0.22266 0.5 0.5 0.5zm5.5-0.5c0 0.27734-0.22266 0.5-0.5 0.5s-0.5-0.22266-0.5-0.5 0.22266-0.5 0.5-0.5 0.5 0.22266 0.5 0.5z" fill="#fff" fill-rule="evenodd"/>
  <g id="g7028" mask="url(#mask-0)">
   <use id="use7026" xlink:href="#source-9"/>
  </g>
 </g>%n%n
</svg>
