<svg id="svg26773" width="18" height="18" fill="none" version="1.1" viewBox="0 0 18 18" xmlns="http://www.w3.org/2000/svg" xmlns:xlink="http://www.w3.org/1999/xlink">
 <g id="g26736">
  <g id="g26729" clip-path="url(#clip0)">
   <path id="path26725" d="m13 1h-8c-2.2091 0-4 1.7909-4 4v8c0 2.2091 1.7909 4 4 4h8c2.2091 0 4-1.7909 4-4v-8c0-2.2091-1.7909-4-4-4zm-8-1c-2.7614 0-5 2.2386-5 5v8c0 2.7614 2.2386 5 5 5h8c2.7614 0 5-2.2386 5-5v-8c0-2.7614-2.2386-5-5-5z" clip-rule="evenodd" fill="#1578b3" fill-rule="evenodd" opacity=".95"/>
   <rect id="rect26727" x="1" y="1" width="16" height="16" rx="4" fill="#45abe9" opacity=".95"/>
  </g>
  <defs id="defs26734">
   <clipPath id="clip0">
    <path id="path26731" d="m0 0h18v18h-18z" fill="#fff"/>
   </clipPath>
  </defs>
 </g>%n%n
 <g id="g26771" transform="matrix(1.0588 0 0 1.0588 2.6471 2.6471)">
  <defs id="defs26757">
   <filter id="filter-remove-color" x="0" y="0" width="1" height="1">
    <feColorMatrix id="feColorMatrix26738" color-interpolation-filters="sRGB" values="0 0 0 0 1 0 0 0 0 1 0 0 0 0 1 0 0 0 1 0"/>
   </filter>
   <mask id="mask-0">
    <g id="g26743" filter="url(#filter-remove-color)">
     <rect id="rect26741" x="-1.2" y="-1.2" width="14.4" height="14.4" fill="#000" fill-opacity=".2"/>
    </g>
   </mask>
   <g id="source-7" clip100-path="url(#clip100-0)">
    <path id="path26746" d="m0 6c0-3.3125 2.6875-6 6-6s6 2.6875 6 6v4c0 1.1055-0.89453 2-2 2h-8c-1.1055 0-2-0.89453-2-2z" fill="#fff"/>
   </g>
   <mask id="mask-1">
    <g id="g26751" filter="url(#filter-remove-color)">
     <rect id="rect26749" x="-1.2" y="-1.2" width="14.4" height="14.4" fill="#000" fill-opacity=".5"/>
    </g>
   </mask>
   <g id="source-13" clip100-path="url(#clip100-1)">
    <path id="path26754" d="m4 8.5h1l-0.60156 1.5h3.2031l-0.60156-1.5h1l1 2.5h-6z" fill="#fff"/>
   </g>
  </defs>
  <g id="g26761" mask="url(#mask-0)">
   <use id="use26759" xlink:href="#source-7"/>
  </g>
  <path id="path26763" d="m3.375 2.375c0.23828-0.23828 0.56641-0.375 0.90625-0.375h3.4375c0.33984 0 0.66797 0.13672 0.90625 0.375s0.375 0.56641 0.375 0.90625v4.7188c0 0.55078-0.44922 1-1 1h-4c-0.55078 0-1-0.44922-1-1v-4.7188c0-0.33984 0.13672-0.66797 0.375-0.90625zm0.625 3.625v-2h4v2zm1 1.5c0 0.27734-0.22266 0.5-0.5 0.5s-0.5-0.22266-0.5-0.5 0.22266-0.5 0.5-0.5 0.5 0.22266 0.5 0.5zm2.5 0.5c0.27734 0 0.5-0.22266 0.5-0.5s-0.22266-0.5-0.5-0.5-0.5 0.22266-0.5 0.5 0.22266 0.5 0.5 0.5z" fill="#fff" fill-rule="evenodd"/>
  <path id="path26765" d="m0 6c0-3.3125 2.6875-6 6-6s6 2.6875 6 6v5c0 0.55078-0.44922 1-1 1h-10c-0.55078 0-1-0.44922-1-1zm11 0v5h-10v-5c0-2.7617 2.2383-5 5-5s5 2.2383 5 5z" fill="#fff" fill-rule="evenodd"/>
  <g id="g26769" mask="url(#mask-1)">
   <use id="use26767" xlink:href="#source-13"/>
  </g>
 </g>%n%n
</svg>
